# xmcd
#
# Track frame offsets:
#	150
#	7075
#	22672
#	38300
#	56372
#	74292
#	89505
#	104205
#	121002
#	134170
#	145890
#
# Disc length: 2219 seconds
#
# Revision: 0
# Processed by: cddbd v1.5PL3 Copyright (c) Steve Scherf et al.
# Submitted via: dBpowerAMP V4.0
#
DISCID=9208a90b
DTITLE=Sherrie Austin - Words
DYEAR=1997
DGENRE=Country
TTITLE0=Words From Sherrie
TTITLE1=Lucky In Love
TTITLE2=Innocent Man
TTITLE3=One Solitary Tear
TTITLE4=Trouble In Paradise
TTITLE5=That's No Way To Break A Heart
TTITLE6=I Want To Fall In Love (So Hard It Hurts)
TTITLE7=Words
TTITLE8=Tenderly
TTITLE9=Put Your Heart Into It
TTITLE10=You Keep On Lovin' Me
EXTD=
EXTT0=
EXTT1=
EXTT2=
EXTT3=
EXTT4=
EXTT5=
EXTT6=
EXTT7=
EXTT8=
EXTT9=
EXTT10=
PLAYORDER=
